<svg xmlns="http://www.w3.org/2000/svg" version="1.1" xmlns:xlink="http://www.w3.org/1999/xlink" xmlns:svgjs="http://svgjs.dev/svgjs" width="1000" height="1000" viewBox="0 0 1000 1000"><g transform="matrix(1,0,0,1,-0.49999999999994316,-0.49999999999994316)"><svg viewBox="0 0 280 280" data-background-color="#ffffff" preserveAspectRatio="xMidYMid meet" height="1000" width="1000" xmlns="http://www.w3.org/2000/svg" xmlns:xlink="http://www.w3.org/1999/xlink"><g id="tight-bounds" transform="matrix(1,0,0,1,0.13999999999998636,0.13999999999998636)"><svg viewBox="0 0 279.72 279.72" height="279.72" width="279.72"><g><svg viewBox="0 0 279.72 279.72" height="279.72" width="279.72"><g><svg viewBox="0 0 279.72 279.72" height="279.72" width="279.72"><g id="textblocktransform"><svg viewBox="0 0 279.72 279.72" height="279.72" width="279.72" id="textblock"><g><svg viewBox="0 0 279.72 279.72" height="279.72" width="279.72"><g transform="matrix(1,0,0,1,73.92936973904246,73.92936372216631)"><svg viewBox="0 0 131.8612605219151 131.8612725556674" height="131.8612725556674" width="131.8612605219151"><g><svg xmlns="http://www.w3.org/2000/svg" xmlns:xlink="http://www.w3.org/1999/xlink" version="1.1" x="0" y="0" viewBox="8.799999237060547 8 83.59999084472656 83.5999984741211" enable-background="new 0 0 100 100" xml:space="preserve" height="131.8612725556674" width="131.8612605219151" class="icon-o-0" data-fill-palette-color="accent" id="o-0"><g fill="#ee3e38" data-fill-palette-color="accent"><path fill="#ee3e38" d="M50.6 91.6c-23.1 0-41.8-18.8-41.8-41.8 0-23.1 18.8-41.8 41.8-41.8 23.1 0 41.8 18.8 41.8 41.8C92.4 72.9 73.6 91.6 50.6 91.6zM50.6 9.9c-22 0-39.8 17.9-39.8 39.8s17.9 39.8 39.8 39.8c22 0 39.8-17.9 39.8-39.8S72.5 9.9 50.6 9.9z" data-fill-palette-color="accent"></path><path fill="#ee3e38" d="M50.6 82.4c-18 0-32.7-14.6-32.7-32.7 0-18 14.6-32.7 32.7-32.7 18 0 32.7 14.6 32.7 32.7C83.2 67.8 68.6 82.4 50.6 82.4zM50.6 19.1c-16.9 0-30.7 13.8-30.7 30.7 0 16.9 13.8 30.7 30.7 30.7s30.7-13.8 30.7-30.7C81.2 32.9 67.5 19.1 50.6 19.1z" data-fill-palette-color="accent"></path><path fill="#ee3e38" d="M69.8 66.6c-0.6 0-1-0.4-1-1v-9.2c-2.3-0.7-4.1-2.7-4.6-5-1.6-8.1 0.3-13 2.1-15.7 1.6-2.5 2.9-3.1 3-3.2l1.5-0.8v23.9c0 0 0 0 0 0v10C70.8 66.2 70.3 66.6 69.8 66.6zM68.8 35.6c-0.2 0.3-0.5 0.7-0.8 1.1-1.6 2.4-3.2 6.8-1.8 14.2 0.3 1.4 1.3 2.7 2.6 3.3V35.6z" data-fill-palette-color="accent"></path><path fill="#ee3e38" d="M54.3 66.3c-0.6 0-1-0.4-1-1v-17c-1-0.1-2.4-0.7-3.7-2.2C48 44 48 35.6 48 34c0-0.5 0.5-1 1-1 0 0 0 0 0 0 0.6 0 1 0.5 1 1 0 3.8 0.3 9.7 1.2 10.9 1.3 1.7 2.9 1.5 2.9 1.5l1.1-0.1v19C55.3 65.9 54.9 66.3 54.3 66.3z" data-fill-palette-color="accent"></path><path fill="#ee3e38" d="M54.3 66.3c-0.6 0-1-0.4-1-1v-19l1.1 0.1c0.1 0 1.7 0.2 2.9-1.5 0.9-1.2 1.3-7.1 1.2-10.9 0-0.6 0.4-1 1-1 0 0 0 0 0 0 0.5 0 1 0.4 1 1 0 1.7 0 10-1.6 12.2-1.2 1.6-2.7 2.1-3.7 2.2v17C55.3 65.9 54.9 66.3 54.3 66.3z" data-fill-palette-color="accent"></path><path fill="#ee3e38" d="M52.7 45.7c-0.5 0-1-0.4-1-1l-0.3-10.6c0-0.6 0.4-1 1-1 0.5 0 1 0.4 1 1l0.3 10.6C53.8 45.2 53.3 45.7 52.7 45.7 52.8 45.7 52.8 45.7 52.7 45.7z" data-fill-palette-color="accent"></path><path fill="#ee3e38" d="M55.9 45.7C55.9 45.7 55.9 45.7 55.9 45.7c-0.6 0-1-0.5-1-1L55.2 34c0-0.6 0.5-1 1-1 0.6 0 1 0.5 1 1l-0.3 10.6C56.9 45.2 56.4 45.7 55.9 45.7z" data-fill-palette-color="accent"></path><g fill="#ee3e38" data-fill-palette-color="accent"><path fill="#ee3e38" d="M36.4 66.4c-0.6 0-1-0.4-1-1V54.1c0-0.6 0.4-1 1-1s1 0.4 1 1v11.3C37.4 66 37 66.4 36.4 66.4z" data-fill-palette-color="accent"></path><g fill="#ee3e38" data-fill-palette-color="accent"><path fill="#ee3e38" d="M36.4 55.1c-7.1 0-9.7-7.5-9.7-12.2 0-4.6 2.1-9.3 2.1-9.5l0.3-0.6h14.6l0.3 0.6c0.1 0.2 2.1 5 2.1 9.5C46.1 47.6 43.5 55.1 36.4 55.1zM30.5 34.8c-0.5 1.4-1.7 4.9-1.7 8.1 0 3.9 2.1 10.2 7.7 10.2 5.6 0 7.7-6.3 7.7-10.2 0-3.3-1.2-6.8-1.7-8.1H30.5z" data-fill-palette-color="accent"></path><path fill="#ee3e38" d="M44.3 66.4H28.6c-0.6 0-1-0.4-1-1 0-0.6 0.4-1 1-1h15.8c0.6 0 1 0.4 1 1C45.3 66 44.9 66.4 44.3 66.4z" data-fill-palette-color="accent"></path><path fill="#ee3e38" d="M45.1 42.3H33.1c-0.6 0-1-0.4-1-1 0-0.6 0.4-1 1-1h11.9c0.6 0 1 0.4 1 1C46.1 41.9 45.6 42.3 45.1 42.3z" data-fill-palette-color="accent"></path></g></g></g></svg></g></svg></g><path d="M26.777 179.921l-15.629 5.19-1.294-3.897 15.629-5.191-1.95-5.87 3.908-1.298 5.19 15.629-3.907 1.298zM23.627 193.981l-7.396 3.596-1.805-3.712 18.514-9 1.805 3.712-7.415 3.604 3.595 7.397 7.415-3.604 1.8 3.703-18.514 8.999-1.8-3.703 7.396-3.595zM35.743 222.121l-3.397 2.326-7.975-11.644 16.985-11.631 7.974 11.644-3.397 2.326-5.642-8.239-3.405 2.332 3.819 5.577-3.397 2.327-3.819-5.577-3.389 2.32zM55.08 239.631l-0.894 4.1c-1.257-0.066-2.469-0.348-3.635-0.847-1.157-0.498-2.197-1.188-3.121-2.068v0c-0.707-0.674-1.299-1.413-1.778-2.218-0.483-0.809-0.849-1.653-1.097-2.53-0.253-0.882-0.391-1.782-0.413-2.699-0.027-0.922 0.064-1.829 0.275-2.724 0.21-0.894 0.535-1.754 0.973-2.58 0.444-0.832 1.002-1.601 1.676-2.308v0c0.674-0.707 1.415-1.302 2.224-1.785 0.809-0.483 1.655-0.851 2.538-1.105 0.878-0.248 1.778-0.381 2.699-0.398 0.922-0.027 1.829 0.064 2.724 0.275 0.889 0.206 1.749 0.53 2.58 0.973 0.827 0.439 1.594 0.995 2.301 1.669v0c0.924 0.881 1.663 1.887 2.217 3.018 0.563 1.131 0.904 2.328 1.021 3.59v0l-4.059 1.097c0.012-0.884-0.158-1.74-0.511-2.566-0.353-0.817-0.856-1.537-1.508-2.159v0c-0.657-0.626-1.393-1.087-2.207-1.381-0.814-0.304-1.638-0.448-2.473-0.432-0.84 0.02-1.659 0.202-2.457 0.544-0.798 0.343-1.506 0.838-2.123 1.486v0c-0.622 0.652-1.082 1.383-1.382 2.192-0.294 0.804-0.432 1.626-0.411 2.466 0.02 0.84 0.2 1.661 0.538 2.464 0.338 0.794 0.836 1.503 1.493 2.13v0c0.652 0.622 1.395 1.089 2.229 1.402 0.838 0.318 1.699 0.449 2.581 0.394zM77.576 250.061v0c-0.555 0.803-1.195 1.506-1.92 2.109-0.72 0.598-1.497 1.09-2.329 1.478-0.827 0.391-1.691 0.669-2.594 0.833-0.908 0.161-1.817 0.208-2.727 0.144-0.91-0.065-1.81-0.252-2.7-0.561-0.891-0.309-1.737-0.741-2.541-1.296v0c-0.803-0.555-1.503-1.193-2.1-1.914-0.603-0.724-1.095-1.501-1.477-2.329-0.387-0.832-0.663-1.7-0.828-2.603-0.17-0.906-0.221-1.817-0.152-2.732 0.069-0.915 0.256-1.816 0.561-2.701 0.309-0.891 0.741-1.737 1.296-2.54v0c0.555-0.803 1.195-1.506 1.92-2.11 0.724-0.603 1.501-1.095 2.329-1.477 0.829-0.382 1.697-0.653 2.605-0.813 0.902-0.164 1.811-0.212 2.727-0.144 0.906 0.07 1.804 0.26 2.694 0.569 0.885 0.305 1.729 0.735 2.532 1.291v0c0.803 0.555 1.506 1.195 2.109 1.92 0.603 0.724 1.097 1.498 1.483 2.32 0.382 0.829 0.657 1.696 0.828 2.603 0.164 0.902 0.211 1.807 0.141 2.712-0.065 0.91-0.252 1.81-0.56 2.701-0.309 0.891-0.741 1.737-1.297 2.54zM74.207 247.731v0c0.509-0.736 0.85-1.529 1.024-2.38 0.168-0.855 0.18-1.694 0.034-2.517-0.149-0.817-0.455-1.593-0.917-2.328-0.459-0.741-1.059-1.368-1.8-1.88v0c-0.747-0.517-1.545-0.857-2.395-1.022-0.851-0.174-1.688-0.188-2.51-0.043-0.826 0.151-1.607 0.457-2.343 0.921-0.735 0.463-1.357 1.062-1.866 1.797v0c-0.513 0.741-0.854 1.535-1.024 2.38-0.166 0.84-0.174 1.673-0.023 2.5 0.151 0.826 0.455 1.61 0.915 2.351 0.457 0.731 1.059 1.355 1.806 1.872v0c0.741 0.513 1.537 0.856 2.388 1.029 0.855 0.168 1.693 0.175 2.514 0.021 0.821-0.154 1.598-0.456 2.331-0.904 0.731-0.457 1.353-1.056 1.866-1.797zM97.985 259.328v0c-0.405 0.888-0.911 1.693-1.519 2.414-0.604 0.715-1.282 1.336-2.032 1.865-0.745 0.531-1.547 0.956-2.407 1.277-0.866 0.318-1.752 0.525-2.659 0.622-0.907 0.096-1.826 0.071-2.757-0.077-0.931-0.147-1.841-0.423-2.729-0.828v0c-0.888-0.405-1.69-0.91-2.405-1.514-0.721-0.607-1.343-1.284-1.864-2.033-0.528-0.751-0.952-1.556-1.273-2.416-0.327-0.862-0.537-1.75-0.631-2.663-0.094-0.913-0.068-1.832 0.076-2.757 0.147-0.931 0.423-1.841 0.829-2.729v0c0.405-0.888 0.911-1.693 1.518-2.414 0.607-0.721 1.284-1.343 2.033-1.865 0.748-0.522 1.555-0.941 2.421-1.259 0.859-0.321 1.746-0.528 2.659-0.622 0.904-0.09 1.822-0.062 2.752 0.086 0.925 0.144 1.831 0.419 2.72 0.824v0c0.888 0.405 1.693 0.911 2.414 1.518 0.721 0.607 1.344 1.281 1.869 2.024 0.522 0.748 0.946 1.554 1.273 2.416 0.321 0.859 0.526 1.741 0.616 2.645 0.096 0.907 0.071 1.826-0.076 2.757-0.147 0.931-0.423 1.841-0.828 2.729zM94.258 257.627v0c0.371-0.814 0.567-1.655 0.588-2.523 0.015-0.871-0.122-1.699-0.409-2.483-0.29-0.778-0.728-1.488-1.313-2.13-0.582-0.648-1.283-1.16-2.103-1.534v0c-0.826-0.377-1.672-0.571-2.537-0.584-0.868-0.021-1.695 0.112-2.479 0.4-0.787 0.294-1.502 0.733-2.144 1.318-0.642 0.585-1.149 1.284-1.52 2.099v0c-0.374 0.82-0.57 1.661-0.589 2.523-0.015 0.856 0.124 1.678 0.418 2.464 0.294 0.787 0.732 1.505 1.314 2.154 0.579 0.639 1.281 1.148 2.107 1.524v0c0.82 0.374 1.664 0.572 2.533 0.593 0.871 0.015 1.697-0.126 2.478-0.423 0.781-0.297 1.493-0.73 2.135-1.299 0.639-0.579 1.146-1.278 1.521-2.099zM112.416 269.713l-1.127 3.96-13.87-3.945 5.633-19.8 3.97 1.129-4.506 15.84zM132.542 259.647l-4.105-0.317-0.634 8.22 4.105 0.317c0.565 0.044 1.104-0.024 1.618-0.204 0.506-0.173 0.961-0.433 1.364-0.778 0.403-0.346 0.73-0.759 0.979-1.24 0.257-0.487 0.407-1.01 0.45-1.567v0c0.044-0.565-0.024-1.108-0.203-1.629-0.173-0.513-0.432-0.971-0.777-1.375-0.346-0.403-0.755-0.729-1.23-0.978-0.48-0.256-1.003-0.406-1.567-0.449zM127.487 271.645l-0.316 4.105-4.116-0.317 1.583-20.525 8.22 0.634c0.756 0.058 1.473 0.213 2.152 0.464 0.68 0.244 1.309 0.57 1.887 0.977 0.578 0.408 1.1 0.879 1.565 1.415 0.465 0.543 0.851 1.13 1.158 1.764 0.314 0.64 0.539 1.315 0.676 2.024 0.143 0.716 0.186 1.452 0.128 2.208v0c-0.054 0.701-0.195 1.379-0.424 2.032-0.229 0.66-0.53 1.277-0.903 1.851-0.373 0.574-0.817 1.094-1.332 1.562-0.523 0.473-1.091 0.871-1.705 1.193v0l1.853 5.546-4.36-0.336-1.468-4.273zM157.067 271.459l0.257 4.109-14.085 0.88-1.284-20.546 14.085-0.88 0.257 4.109-9.966 0.623 0.257 4.119 6.747-0.421 0.256 4.109-6.746 0.421 0.256 4.099zM156.922 260.949v0c-0.171-0.836-0.174-1.651-0.008-2.445 0.171-0.801 0.474-1.532 0.911-2.193 0.436-0.661 0.987-1.223 1.652-1.686 0.67-0.471 1.42-0.792 2.25-0.961v0l9.261-1.892 0.824 4.033-9.261 1.893c-0.281 0.057-0.531 0.164-0.75 0.32-0.227 0.151-0.412 0.335-0.556 0.553-0.142 0.224-0.242 0.468-0.301 0.73-0.05 0.268-0.046 0.542 0.012 0.823v0c0.057 0.281 0.162 0.535 0.312 0.762 0.158 0.226 0.345 0.41 0.563 0.554 0.219 0.15 0.462 0.251 0.73 0.301 0.263 0.058 0.535 0.058 0.816 0v0l4.044-0.826c0.83-0.169 1.644-0.175 2.442-0.018 0.807 0.163 1.54 0.462 2.201 0.899 0.661 0.436 1.22 0.991 1.678 1.664 0.466 0.678 0.784 1.432 0.953 2.262v0c0.171 0.836 0.174 1.651 0.008 2.444-0.157 0.799-0.454 1.528-0.89 2.189-0.436 0.661-0.994 1.224-1.673 1.69-0.67 0.471-1.42 0.792-2.249 0.962v0l-8.961 1.83-0.824-4.034 8.961-1.83c0.281-0.057 0.531-0.164 0.75-0.321 0.227-0.151 0.412-0.335 0.556-0.552 0.142-0.224 0.242-0.468 0.3-0.731 0.05-0.268 0.046-0.542-0.011-0.823v0c-0.057-0.281-0.161-0.532-0.311-0.752-0.158-0.226-0.345-0.41-0.563-0.554-0.218-0.144-0.461-0.244-0.73-0.3-0.261-0.051-0.532-0.048-0.813 0.009v0l-4.044 0.826c-0.83 0.169-1.645 0.169-2.447-0.002-0.793-0.165-1.52-0.466-2.181-0.903-0.661-0.436-1.227-0.993-1.7-1.67-0.465-0.672-0.782-1.422-0.951-2.251zM181.895 252.271l5.474 15.532-3.874 1.365-5.473-15.532-5.834 2.056-1.369-3.883 15.532-5.474 1.369 3.883zM195.238 255.543l7.357-3.7-1.85-3.678c-0.255-0.506-0.59-0.938-1.006-1.294-0.419-0.347-0.878-0.606-1.376-0.775-0.504-0.167-1.03-0.231-1.576-0.194-0.543 0.029-1.068 0.17-1.575 0.425v0c-0.506 0.255-0.933 0.591-1.28 1.011-0.356 0.416-0.615 0.875-0.775 1.376-0.167 0.504-0.236 1.028-0.207 1.571 0.038 0.546 0.184 1.073 0.438 1.579v0zM204.432 246.311l5.545 11.025-3.688 1.854-1.849-3.678-7.357 3.7 1.85 3.678-3.669 1.845-5.545-11.025c-0.512-1.019-0.802-2.073-0.868-3.163-0.064-1.084 0.068-2.128 0.396-3.134 0.324-0.996 0.838-1.912 1.542-2.747 0.697-0.832 1.555-1.504 2.574-2.017v0c1.019-0.512 2.07-0.8 3.153-0.864 1.09-0.067 2.135 0.065 3.134 0.396 1.008 0.334 1.929 0.849 2.761 1.546 0.835 0.703 1.509 1.564 2.021 2.584zM215.073 228.546l7.164 10.074c0.661 0.929 1.105 1.925 1.332 2.986 0.231 1.067 0.254 2.119 0.07 3.155-0.175 1.038-0.547 2.023-1.116 2.955-0.563 0.928-1.309 1.723-2.239 2.384v0c-0.929 0.661-1.925 1.105-2.986 1.332-1.067 0.231-2.117 0.257-3.149 0.078-1.034-0.17-2.017-0.539-2.949-1.108-0.928-0.563-1.723-1.309-2.384-2.238v0l-7.164-10.074 3.347-2.38 7.164 10.074c0.328 0.462 0.721 0.832 1.179 1.11 0.467 0.28 0.962 0.464 1.486 0.551 0.518 0.092 1.044 0.078 1.578-0.042 0.533-0.111 1.03-0.33 1.492-0.658v0c0.462-0.328 0.833-0.726 1.112-1.193 0.289-0.465 0.478-0.96 0.567-1.484 0.083-0.52 0.069-1.046-0.042-1.579-0.112-0.523-0.333-1.016-0.662-1.477v0l-7.164-10.074zM224.888 224.52l-2.95 2.872 5.751 5.907 2.95-2.872c0.406-0.395 0.711-0.845 0.916-1.349 0.205-0.495 0.31-1.007 0.318-1.539 0.007-0.531-0.087-1.049-0.284-1.554-0.196-0.514-0.489-0.972-0.88-1.373v0c-0.395-0.406-0.848-0.714-1.356-0.923-0.499-0.209-1.015-0.318-1.546-0.325-0.531-0.007-1.046 0.085-1.546 0.276-0.51 0.191-0.967 0.484-1.373 0.88zM230.554 236.242l2.872 2.949-2.957 2.88-14.36-14.749 5.906-5.752c0.543-0.529 1.133-0.965 1.771-1.309 0.632-0.349 1.292-0.606 1.98-0.77 0.688-0.165 1.387-0.245 2.096-0.24 0.714 0.01 1.411 0.108 2.089 0.296 0.688 0.188 1.343 0.465 1.966 0.83 0.632 0.366 1.213 0.82 1.742 1.363v0c0.491 0.504 0.906 1.057 1.246 1.661 0.344 0.608 0.609 1.242 0.793 1.901 0.184 0.659 0.282 1.336 0.291 2.031 0.01 0.705-0.067 1.395-0.23 2.069v0l5.387 2.273-3.133 3.051-4.178-1.722zM240.398 219.456l4.984-6.555-3.278-2.492c-0.451-0.343-0.942-0.583-1.472-0.72-0.529-0.128-1.055-0.158-1.577-0.093-0.526 0.072-1.026 0.245-1.501 0.519-0.476 0.265-0.885 0.622-1.227 1.074v0c-0.343 0.451-0.578 0.941-0.706 1.47-0.137 0.53-0.168 1.056-0.092 1.577 0.072 0.526 0.24 1.027 0.504 1.502 0.274 0.474 0.637 0.883 1.088 1.226v0zM244.602 207.123l9.824 7.469-2.497 3.286-3.278-2.492-4.983 6.555 3.277 2.492-2.485 3.269-9.825-7.469c-0.908-0.69-1.631-1.51-2.169-2.459-0.533-0.946-0.874-1.942-1.021-2.989-0.146-1.037-0.087-2.086 0.178-3.146 0.261-1.054 0.736-2.035 1.426-2.942v0c0.69-0.908 1.508-1.628 2.454-2.161 0.95-0.539 1.946-0.879 2.989-1.022 1.052-0.143 2.106-0.085 3.159 0.177 1.059 0.265 2.043 0.742 2.951 1.432zM246.51 186.173l18.101 9.806-2.098 3.872-15.694 0.525 11.913 6.454-1.966 3.629-18.1-9.806 2.103-3.881 15.712-0.515-11.932-6.464zM253.72 177.638l15.53 5.48-1.367 3.873-15.53-5.48-2.058 5.834-3.883-1.37 5.48-15.53 3.883 1.37z" fill="#ee3e38" data-fill-palette-color="primary"></path><path d="M25.897 85.739L31.554 84.611C32.167 86.238 32.476 87.917 32.483 89.65 32.494 91.391 32.199 93.083 31.6 94.724V94.724C31.14 95.981 30.534 97.134 29.781 98.182 29.027 99.229 28.164 100.15 27.191 100.943 26.222 101.745 25.164 102.412 24.017 102.945 22.87 103.479 21.681 103.858 20.45 104.085 19.212 104.308 17.95 104.371 16.663 104.271 15.377 104.172 14.105 103.893 12.848 103.434V103.434C11.591 102.975 10.435 102.367 9.381 101.611 8.327 100.855 7.402 99.994 6.607 99.028 5.805 98.059 5.137 97.001 4.604 95.854 4.071 94.707 3.692 93.514 3.468 92.277 3.242 91.046 3.179 89.787 3.278 88.5 3.377 87.213 3.657 85.941 4.116 84.685V84.685C4.716 83.043 5.574 81.557 6.692 80.228 7.814 78.908 9.137 77.825 10.66 76.978V76.978L14.257 81.487C13.134 81.956 12.154 82.638 11.319 83.532 10.481 84.433 9.85 85.464 9.426 86.624V86.624C9 87.792 8.82 88.969 8.888 90.157 8.956 91.345 9.232 92.459 9.716 93.501 10.194 94.541 10.867 95.474 11.736 96.3 12.6 97.117 13.613 97.738 14.774 98.162V98.162C15.934 98.586 17.105 98.763 18.287 98.693 19.464 98.614 20.577 98.334 21.625 97.852 22.667 97.367 23.597 96.693 24.414 95.829 25.238 94.966 25.863 93.952 26.289 92.785V92.785C26.713 91.624 26.892 90.428 26.826 89.197 26.763 87.975 26.454 86.822 25.897 85.739ZM101.302 11.806V11.806C101.846 13.029 102.212 14.278 102.399 15.555 102.586 16.832 102.61 18.096 102.471 19.346 102.336 20.586 102.041 21.797 101.588 22.978 101.14 24.156 100.553 25.255 99.825 26.273 99.1 27.298 98.238 28.224 97.238 29.05 96.238 29.876 95.127 30.561 93.904 31.105V31.105C92.681 31.649 91.432 32.014 90.155 32.201 88.878 32.388 87.616 32.408 86.37 32.26 85.12 32.121 83.904 31.825 82.723 31.371 81.543 30.918 80.443 30.327 79.424 29.6 78.403 28.866 77.48 28.002 76.657 27.008 75.834 26.014 75.15 24.906 74.606 23.684V23.684C74.062 22.461 73.695 21.208 73.506 19.925 73.316 18.642 73.293 17.381 73.437 16.144 73.579 14.9 73.877 13.688 74.33 12.507 74.784 11.326 75.379 10.228 76.116 9.213 76.846 8.201 77.708 7.283 78.702 6.459 79.695 5.636 80.804 4.953 82.026 4.409V4.409C83.249 3.865 84.502 3.498 85.785 3.308 87.068 3.118 88.33 3.091 89.571 3.226 90.812 3.362 92.02 3.658 93.194 4.114 94.375 4.568 95.472 5.16 96.484 5.89 97.5 6.611 98.421 7.472 99.247 8.472 100.073 9.472 100.758 10.583 101.302 11.806ZM96.175 14.087V14.087C95.672 12.958 94.981 11.992 94.1 11.188 93.223 10.375 92.252 9.764 91.189 9.356 90.116 8.944 88.985 8.745 87.795 8.758 86.599 8.775 85.437 9.034 84.308 9.536V9.536C83.172 10.041 82.201 10.731 81.395 11.606 80.588 12.48 79.979 13.454 79.567 14.526 79.152 15.593 78.95 16.725 78.96 17.924 78.974 19.114 79.232 20.273 79.734 21.402V21.402C80.236 22.531 80.923 23.496 81.795 24.296 82.67 25.088 83.646 25.692 84.721 26.111 85.794 26.523 86.925 26.722 88.114 26.708 89.307 26.701 90.471 26.445 91.606 25.94V25.94C92.735 25.437 93.705 24.744 94.515 23.861 95.321 22.986 95.931 22.013 96.343 20.94 96.746 19.864 96.943 18.737 96.935 17.56 96.93 16.374 96.677 15.216 96.175 14.087ZM207.576 24.242V24.242C207.038 25.468 206.36 26.579 205.542 27.578 204.724 28.576 203.806 29.444 202.789 30.183 201.78 30.919 200.687 31.516 199.508 31.976 198.336 32.439 197.128 32.744 195.885 32.892 194.64 33.046 193.375 33.032 192.091 32.849 190.807 32.666 189.552 32.305 188.326 31.768V31.768C187.101 31.23 185.989 30.552 184.991 29.734 183.993 28.916 183.129 27.996 182.399 26.975 181.66 25.958 181.06 24.86 180.601 23.681 180.141 22.503 179.837 21.292 179.689 20.049 179.544 18.8 179.561 17.536 179.741 16.258 179.922 14.981 180.281 13.729 180.818 12.503V12.503C181.356 11.278 182.035 10.163 182.856 9.159 183.677 8.154 184.593 7.289 185.606 6.563 186.62 5.83 187.717 5.233 188.896 4.774 190.074 4.314 191.286 4.015 192.533 3.875 193.773 3.734 195.032 3.753 196.31 3.933 197.588 4.114 198.84 4.473 200.065 5.01V5.01C201.291 5.548 202.405 6.227 203.41 7.048 204.414 7.869 205.284 8.784 206.02 9.792 206.755 10.801 207.35 11.893 207.803 13.069 208.263 14.247 208.564 15.456 208.705 16.697 208.856 17.933 208.84 19.194 208.657 20.478 208.474 21.762 208.114 23.017 207.576 24.242ZM202.436 21.987V21.987C202.933 20.856 203.182 19.694 203.183 18.501 203.193 17.305 202.991 16.177 202.577 15.115 202.159 14.045 201.545 13.074 200.734 12.204 199.917 11.331 198.942 10.646 197.81 10.15V10.15C196.672 9.651 195.509 9.397 194.319 9.39 193.129 9.382 191.999 9.587 190.929 10.005 189.861 10.416 188.887 11.029 188.008 11.844 187.138 12.655 186.454 13.627 185.958 14.758V14.758C185.461 15.89 185.211 17.048 185.206 18.231 185.21 19.411 185.42 20.539 185.835 21.616 186.253 22.686 186.867 23.657 187.678 24.527 188.486 25.404 189.46 26.091 190.598 26.591V26.591C191.729 27.087 192.894 27.337 194.093 27.341 195.283 27.349 196.413 27.144 197.483 26.726 198.55 26.299 199.516 25.687 200.381 24.888 201.255 24.086 201.94 23.119 202.436 21.987ZM260.363 106.236L255.077 108.241 248.063 89.75 274.482 79.729 276.487 85.015 255.354 93.031Z" fill="#ee3e38" data-fill-palette-color="primary"></path><path d="M0 139.142c0-6.043 4.899-10.943 10.943-10.943 6.043 0 10.943 4.899 10.942 10.943 0 6.043-4.899 10.943-10.942 10.943-6.043 0-10.943-4.899-10.943-10.943zM257.835 139.142c0-6.043 4.899-10.943 10.942-10.943 6.043 0 10.943 4.899 10.943 10.943 0 6.043-4.899 10.943-10.943 10.943-6.043 0-10.943-4.899-10.942-10.943z" fill="#ee3e38" data-fill-palette-color="primary"></path></svg></g></svg></g></svg></g></svg></g><defs></defs></svg><rect width="279.72" height="279.72" fill="none" stroke="none" visibility="hidden"></rect></g></svg></g></svg>